<svg width="42" height="36" viewBox="0 0 42 36" fill="none" xmlns="http://www.w3.org/2000/svg">
<path d="M42 4.97483C40.4548 5.66083 38.794 6.12283 37.051 6.33108C38.8308 5.26533 40.1975 3.57658 40.8397 1.56408C39.1755 2.55108 37.331 3.26858 35.3675 3.65533C33.7977 1.98058 31.556 0.934082 29.078 0.934082C23.5147 0.934082 19.4268 6.12458 20.6833 11.5128C13.524 11.1541 7.175 7.72408 2.92425 2.51083C0.66675 6.38358 1.7535 11.4498 5.5895 14.0153C4.179 13.9698 2.849 13.5831 1.68875 12.9373C1.59425 16.9291 4.4555 20.6636 8.5995 21.4948C7.38675 21.8238 6.0585 21.9008 4.7075 21.6418C5.803 25.0648 8.9845 27.5551 12.7575 27.6251C9.135 30.4653 4.571 31.7341 0 31.1951C3.81325 33.6398 8.344 35.0661 13.209 35.0661C29.2075 35.0661 38.2463 21.5543 37.7002 9.43558C39.3837 8.21933 40.845 6.70208 42 4.97483Z" fill="#61A0FF"/>
</svg>
