<svg width="170" height="25" viewBox="0 0 170 25" fill="none" xmlns="http://www.w3.org/2000/svg">
<path d="M0.994318 3.57919V0.818181H15.5007V3.57919H9.88104V19H6.61399V3.57919H0.994318ZM21.6258 19.2663C20.2941 19.2663 19.14 18.9734 18.1634 18.3874C17.1869 17.8015 16.4293 16.9818 15.8907 15.9283C15.358 14.8748 15.0917 13.6437 15.0917 12.2351C15.0917 10.8265 15.358 9.59245 15.8907 8.53303C16.4293 7.4736 17.1869 6.65092 18.1634 6.06499C19.14 5.47905 20.2941 5.18608 21.6258 5.18608C22.9575 5.18608 24.1116 5.47905 25.0882 6.06499C26.0647 6.65092 26.8193 7.4736 27.352 8.53303C27.8906 9.59245 28.1599 10.8265 28.1599 12.2351C28.1599 13.6437 27.8906 14.8748 27.352 15.9283C26.8193 16.9818 26.0647 17.8015 25.0882 18.3874C24.1116 18.9734 22.9575 19.2663 21.6258 19.2663ZM21.6436 16.6918C22.3656 16.6918 22.9693 16.4935 23.4546 16.0969C23.94 15.6945 24.301 15.1559 24.5377 14.4812C24.7804 13.8065 24.9017 13.0548 24.9017 12.2262C24.9017 11.3917 24.7804 10.6371 24.5377 9.96236C24.301 9.28172 23.94 8.74018 23.4546 8.33771C22.9693 7.93525 22.3656 7.73402 21.6436 7.73402C20.9037 7.73402 20.2882 7.93525 19.797 8.33771C19.3116 8.74018 18.9477 9.28172 18.705 9.96236C18.4682 10.6371 18.3499 11.3917 18.3499 12.2262C18.3499 13.0548 18.4682 13.8065 18.705 14.4812C18.9477 15.1559 19.3116 15.6945 19.797 16.0969C20.2882 16.4935 20.9037 16.6918 21.6436 16.6918ZM30.3876 19V5.36364H33.4593V7.68075H33.6191C33.9032 6.8995 34.3738 6.28989 35.0307 5.85192C35.6877 5.40803 36.4719 5.18608 37.3833 5.18608C38.3066 5.18608 39.0849 5.41098 39.7182 5.8608C40.3574 6.30469 40.8072 6.91134 41.0676 7.68075H41.2097C41.5115 6.92318 42.0205 6.31948 42.7367 5.86967C43.4587 5.41394 44.314 5.18608 45.3024 5.18608C46.5571 5.18608 47.581 5.58262 48.3741 6.37571C49.1672 7.1688 49.5637 8.32588 49.5637 9.84695V19H46.3411V10.3441C46.3411 9.49775 46.1162 8.87926 45.6664 8.48864C45.2166 8.09209 44.6661 7.89382 44.0151 7.89382C43.2398 7.89382 42.6331 8.13648 42.1951 8.6218C41.7631 9.10121 41.5471 9.72562 41.5471 10.495V19H38.3954V10.2109C38.3954 9.50663 38.1824 8.94437 37.7562 8.52415C37.336 8.10393 36.7856 7.89382 36.1049 7.89382C35.6433 7.89382 35.2231 8.01219 34.8443 8.24893C34.4655 8.47976 34.1636 8.80824 33.9387 9.23438C33.7138 9.65459 33.6014 10.1458 33.6014 10.7081V19H30.3876ZM52.3241 19V5.36364H55.3959V7.68075H55.5557C55.8398 6.8995 56.3103 6.28989 56.9672 5.85192C57.6242 5.40803 58.4084 5.18608 59.3199 5.18608C60.2432 5.18608 61.0215 5.41098 61.6547 5.8608C62.2939 6.30469 62.7438 6.91134 63.0042 7.68075H63.1462C63.4481 6.92318 63.9571 6.31948 64.6732 5.86967C65.3953 5.41394 66.2505 5.18608 67.2389 5.18608C68.4936 5.18608 69.5175 5.58262 70.3106 6.37571C71.1037 7.1688 71.5003 8.32588 71.5003 9.84695V19H68.2776V10.3441C68.2776 9.49775 68.0527 8.87926 67.6029 8.48864C67.1531 8.09209 66.6027 7.89382 65.9516 7.89382C65.1763 7.89382 64.5696 8.13648 64.1317 8.6218C63.6996 9.10121 63.4836 9.72562 63.4836 10.495V19H60.3319V10.2109C60.3319 9.50663 60.1189 8.94437 59.6927 8.52415C59.2725 8.10393 58.7221 7.89382 58.0415 7.89382C57.5798 7.89382 57.1596 8.01219 56.7808 8.24893C56.402 8.47976 56.1002 8.80824 55.8753 9.23438C55.6504 9.65459 55.5379 10.1458 55.5379 10.7081V19H52.3241ZM75.7699 24.1136C75.3319 24.1136 74.9265 24.0781 74.5536 24.0071C74.1867 23.942 73.8937 23.8651 73.6747 23.7763L74.4205 21.2727C74.888 21.4089 75.3053 21.474 75.6722 21.468C76.0392 21.4621 76.3617 21.3467 76.6399 21.1218C76.924 20.9028 77.1637 20.5359 77.359 20.021L77.6342 19.2841L72.6893 5.36364H76.0984L79.2411 15.6619H79.3832L82.5348 5.36364H85.9528L80.4929 20.6513C80.2384 21.3733 79.901 21.9918 79.4808 22.5067C79.0606 23.0276 78.5457 23.4241 77.9361 23.6964C77.3324 23.9746 76.6103 24.1136 75.7699 24.1136ZM93.5199 0.818181H97.5504L102.948 13.9929H103.161L108.559 0.818181H112.589V19H109.429V6.50888H109.26L104.235 18.9467H101.874L96.8491 6.48224H96.6804V19H93.5199V0.818181ZM119.458 19.2752C118.594 19.2752 117.816 19.1213 117.123 18.8136C116.437 18.4999 115.892 18.0382 115.49 17.4286C115.093 16.819 114.895 16.0674 114.895 15.1737C114.895 14.4042 115.037 13.768 115.321 13.2649C115.605 12.7618 115.993 12.3594 116.484 12.0575C116.975 11.7557 117.529 11.5278 118.144 11.3739C118.766 11.2141 119.408 11.0987 120.071 11.0277C120.87 10.9448 121.518 10.8709 122.015 10.8058C122.512 10.7347 122.873 10.6282 123.098 10.4862C123.329 10.3382 123.444 10.1103 123.444 9.80256V9.74929C123.444 9.08049 123.246 8.56262 122.849 8.19567C122.453 7.82872 121.882 7.64524 121.136 7.64524C120.349 7.64524 119.724 7.81688 119.263 8.16016C118.807 8.50343 118.499 8.90885 118.339 9.37642L115.339 8.95028C115.576 8.12169 115.966 7.42921 116.511 6.87287C117.055 6.31061 117.721 5.89039 118.508 5.61222C119.295 5.32812 120.165 5.18608 121.118 5.18608C121.775 5.18608 122.429 5.26302 123.08 5.4169C123.731 5.57079 124.326 5.82528 124.865 6.1804C125.403 6.52959 125.835 7.00604 126.161 7.60973C126.492 8.21342 126.658 8.96804 126.658 9.87358V19H123.569V17.1268H123.462C123.267 17.5056 122.991 17.8607 122.636 18.1921C122.287 18.5176 121.846 18.781 121.314 18.9822C120.787 19.1776 120.168 19.2752 119.458 19.2752ZM120.293 16.9137C120.938 16.9137 121.497 16.7865 121.971 16.532C122.444 16.2715 122.808 15.9283 123.062 15.5021C123.323 15.076 123.453 14.6114 123.453 14.1083V12.5014C123.353 12.5843 123.181 12.6612 122.938 12.7322C122.701 12.8033 122.435 12.8654 122.139 12.9187C121.843 12.9719 121.55 13.0193 121.26 13.0607C120.97 13.1022 120.719 13.1377 120.506 13.1673C120.026 13.2324 119.597 13.3389 119.218 13.4869C118.84 13.6348 118.541 13.842 118.322 14.1083C118.103 14.3687 117.993 14.7061 117.993 15.1204C117.993 15.7122 118.209 16.1591 118.641 16.4609C119.073 16.7628 119.624 16.9137 120.293 16.9137ZM140.167 8.96804L137.238 9.28764C137.155 8.99171 137.01 8.71354 136.803 8.45312C136.601 8.19271 136.329 7.9826 135.986 7.8228C135.643 7.663 135.222 7.5831 134.725 7.5831C134.056 7.5831 133.494 7.7281 133.038 8.01811C132.589 8.30812 132.367 8.68395 132.373 9.1456C132.367 9.54214 132.512 9.8647 132.808 10.1133C133.109 10.3619 133.607 10.5661 134.299 10.7259L136.625 11.223C137.915 11.5012 138.874 11.9421 139.501 12.5458C140.135 13.1495 140.454 13.9396 140.46 14.9162C140.454 15.7744 140.203 16.532 139.706 17.1889C139.214 17.84 138.531 18.349 137.655 18.7159C136.779 19.0829 135.773 19.2663 134.636 19.2663C132.967 19.2663 131.624 18.9171 130.606 18.2188C129.588 17.5144 128.981 16.5349 128.786 15.2802L131.92 14.9783C132.062 15.5939 132.364 16.0585 132.825 16.3722C133.287 16.6858 133.888 16.8427 134.627 16.8427C135.391 16.8427 136.004 16.6858 136.465 16.3722C136.933 16.0585 137.167 15.6708 137.167 15.2092C137.167 14.8185 137.016 14.496 136.714 14.2415C136.418 13.987 135.956 13.7917 135.329 13.6555L133.003 13.1673C131.695 12.895 130.727 12.4363 130.1 11.7912C129.472 11.1402 129.162 10.3175 129.168 9.32315C129.162 8.48272 129.39 7.75473 129.851 7.1392C130.319 6.51776 130.967 6.03835 131.795 5.70099C132.63 5.35772 133.592 5.18608 134.681 5.18608C136.279 5.18608 137.536 5.5264 138.454 6.20703C139.377 6.88767 139.948 7.808 140.167 8.96804ZM148.558 19.2663C147.227 19.2663 146.073 18.9734 145.096 18.3874C144.119 17.8015 143.362 16.9818 142.823 15.9283C142.291 14.8748 142.024 13.6437 142.024 12.2351C142.024 10.8265 142.291 9.59245 142.823 8.53303C143.362 7.4736 144.119 6.65092 145.096 6.06499C146.073 5.47905 147.227 5.18608 148.558 5.18608C149.89 5.18608 151.044 5.47905 152.021 6.06499C152.997 6.65092 153.752 7.4736 154.285 8.53303C154.823 9.59245 155.093 10.8265 155.093 12.2351C155.093 13.6437 154.823 14.8748 154.285 15.9283C153.752 16.9818 152.997 17.8015 152.021 18.3874C151.044 18.9734 149.89 19.2663 148.558 19.2663ZM148.576 16.6918C149.298 16.6918 149.902 16.4935 150.387 16.0969C150.873 15.6945 151.234 15.1559 151.47 14.4812C151.713 13.8065 151.834 13.0548 151.834 12.2262C151.834 11.3917 151.713 10.6371 151.47 9.96236C151.234 9.28172 150.873 8.74018 150.387 8.33771C149.902 7.93525 149.298 7.73402 148.576 7.73402C147.836 7.73402 147.221 7.93525 146.73 8.33771C146.244 8.74018 145.88 9.28172 145.638 9.96236C145.401 10.6371 145.282 11.3917 145.282 12.2262C145.282 13.0548 145.401 13.8065 145.638 14.4812C145.88 15.1559 146.244 15.6945 146.73 16.0969C147.221 16.4935 147.836 16.6918 148.576 16.6918ZM160.534 11.0099V19H157.32V5.36364H160.392V7.68075H160.552C160.865 6.91726 161.366 6.31061 162.052 5.8608C162.745 5.41098 163.6 5.18608 164.618 5.18608C165.559 5.18608 166.379 5.38731 167.077 5.78977C167.781 6.19223 168.326 6.77521 168.71 7.53871C169.101 8.3022 169.293 9.22846 169.288 10.3175V19H166.074V10.8146C166.074 9.90317 165.837 9.18999 165.364 8.67507C164.896 8.16016 164.248 7.9027 163.419 7.9027C162.857 7.9027 162.357 8.02699 161.919 8.27557C161.487 8.51823 161.147 8.87038 160.898 9.33203C160.655 9.79368 160.534 10.353 160.534 11.0099Z" fill="black"/>
</svg>
