<svg width="47" height="45" viewBox="0 0 47 45" fill="none" xmlns="http://www.w3.org/2000/svg">
<g clip-path="url(#clip0_773_24865)">
<path d="M15.8401 4.59404C16.2138 4.46018 16.575 4.29378 16.9195 4.09674C17.0578 4.0173 17.1917 3.93053 17.3207 3.83679L17.6768 3.59944C17.8955 3.43489 18.1302 3.29289 18.3775 3.17561C18.5057 3.11123 18.6401 3.0601 18.7787 3.02303L19.0048 2.96652L19.2591 2.93826C18.9969 2.98066 18.7432 3.0646 18.5075 3.18691C18.4064 3.23792 18.3083 3.29452 18.2136 3.35644C18.1232 3.41296 18.0328 3.48642 17.9424 3.55424C17.7615 3.68986 17.5694 3.82549 17.3433 3.98372C17.2303 4.06284 17.106 4.14195 16.9704 4.22107C16.8347 4.30583 16.6765 4.3793 16.5126 4.46972C16.3488 4.56013 16.0605 4.69011 15.8345 4.78618C15.6084 4.88225 15.3824 4.97832 15.1564 5.06308C14.7269 5.23827 14.3143 5.3739 14.0261 5.48692L14.4669 5.53213C14.6138 5.53213 14.7664 5.56604 14.9134 5.57169C15.0603 5.57734 15.2129 5.57169 15.3598 5.57169C15.5067 5.57169 15.6593 5.57169 15.8119 5.57169C15.9644 5.57169 16.1057 5.57169 16.2527 5.52083C16.3993 5.50129 16.5446 5.47298 16.6878 5.43606C16.9846 5.35709 17.271 5.24327 17.5411 5.09699C18.0677 4.77288 18.5437 4.37301 18.9539 3.91025C19.467 3.37543 20.1123 2.98555 20.8244 2.78003C20.222 2.44039 19.5529 2.23599 18.8635 2.18101C18.0615 2.12567 17.2577 2.26123 16.5183 2.57659C15.8315 2.85768 15.2171 3.29042 14.7212 3.84244C14.6155 3.95454 14.5174 4.07347 14.4274 4.19846C14.3369 4.32279 14.2522 4.45276 14.1731 4.57709C14.0181 4.83227 13.8784 5.09645 13.7549 5.36825C13.9301 5.32304 14.1731 5.23262 14.5178 5.11394L15.0829 4.89355L15.8401 4.59404Z" fill="#1C1C1B"/>
<path d="M21.3274 43.5869C21.4744 43.4795 21.61 43.3778 21.7287 43.276C21.84 43.1725 21.9456 43.0631 22.0451 42.9483C22.2186 42.7459 22.3649 42.5217 22.4803 42.2814C22.6736 41.8417 22.7975 41.3746 22.8476 40.8969C22.6258 40.981 22.4089 41.0772 22.1977 41.1851C21.9095 41.3377 21.5422 41.5185 21.0675 41.7502C20.9777 41.7934 20.8909 41.8425 20.8076 41.8972L20.5759 42.0384C20.4455 42.1243 20.3209 42.2187 20.2029 42.321C20.0089 42.4945 19.8294 42.6835 19.666 42.8861C19.3584 43.2929 18.9222 43.5836 18.4284 43.7112C18.8272 43.5679 19.1738 43.308 19.423 42.9652C19.7136 42.5804 20.0603 42.2413 20.4515 41.9593C21.1199 41.5285 21.8209 41.1506 22.5481 40.8291C21.384 40.8291 20.1181 40.8856 19.2026 41.5524C18.7922 41.8904 18.467 42.3202 18.2532 42.807C18.1265 43.0512 17.973 43.2806 17.7955 43.4908C17.5661 43.7515 17.2877 43.9647 16.9761 44.1181C17.3468 44.2172 17.7247 44.2871 18.1063 44.3271C18.4823 44.3597 18.8605 44.3597 19.2365 44.3271C19.6096 44.289 19.9773 44.2094 20.3328 44.0898C20.4176 44.0615 20.508 44.0333 20.5872 43.9994L20.8358 43.8807C21.0061 43.794 21.1704 43.6958 21.3274 43.5869Z" fill="#1C1C1B"/>
<path d="M16.4958 42.694C17.048 42.4877 17.5369 42.141 17.9143 41.6881C18.202 41.297 18.4288 40.8645 18.5867 40.4053C18.2703 40.4562 17.6769 40.5918 16.6653 40.8631C16.328 40.9523 16.0004 41.0754 15.6877 41.2304C15.4655 41.3486 15.2521 41.4827 15.0491 41.6316C14.8721 41.7675 14.683 41.8866 14.484 41.9876C14.2291 42.0983 13.9538 42.1541 13.6759 42.1515C14.0946 42.1051 14.489 41.9315 14.8061 41.6542C15.1752 41.344 15.591 41.0942 16.0381 40.9139C16.2359 40.8292 16.4506 40.7557 16.6597 40.6879C16.8688 40.6201 17.0779 40.5692 17.2813 40.5127L17.8464 40.3658L18.1008 40.3092L18.3268 40.2584C17.7558 40.112 17.1736 40.0137 16.5862 39.9645C16.3005 39.9389 16.013 39.9389 15.7273 39.9645C15.4454 40.0005 15.1697 40.0747 14.9079 40.1849C14.4315 40.4208 14.0172 40.7654 13.6985 41.1908C13.3075 41.6806 12.7648 42.0265 12.1558 42.1741C12.8288 42.5413 13.5616 42.7862 14.3202 42.8975C14.5123 42.8975 14.6988 42.9314 14.8853 42.937H15.1678H15.4447C15.8038 42.8998 16.1568 42.8181 16.4958 42.694Z" fill="#1C1C1B"/>
<path d="M11.9914 40.7222C12.3103 40.6791 12.622 40.5935 12.9182 40.4678C13.1627 40.3658 13.3912 40.2287 13.5963 40.061C13.968 39.7516 14.2885 39.3854 14.5457 38.976C14.3875 38.976 14.1558 38.976 13.828 38.976H13.2629C13.0538 38.976 12.8221 38.976 12.5565 38.976C11.9544 38.9789 11.3596 39.1078 10.8103 39.3546C10.6036 39.447 10.3876 39.5171 10.1661 39.5637C9.89261 39.6254 9.60884 39.6254 9.33538 39.5637C9.46324 39.5744 9.59178 39.5744 9.71965 39.5637C9.82613 39.5536 9.93183 39.5366 10.0361 39.5128C10.2178 39.4656 10.394 39.3993 10.5617 39.315C10.9906 39.0997 11.4498 38.951 11.9236 38.8742C12.1383 38.8352 12.3554 38.8107 12.5735 38.8008C12.7939 38.8008 13.0143 38.7669 13.2234 38.7612H14.3423C14.2123 38.6934 14.0766 38.6312 13.941 38.5747C13.8054 38.5182 13.6754 38.4447 13.5398 38.3882L13.1216 38.2244C12.986 38.1791 12.8504 38.1226 12.7091 38.0831C12.164 37.8983 11.5819 37.8498 11.0137 37.9418C10.4964 38.0576 10.0153 38.2981 9.61227 38.6425C9.122 39.0334 8.51563 39.2501 7.88867 39.2585C8.02995 39.3828 8.17124 39.5015 8.32382 39.6202C8.47822 39.7341 8.63856 39.8397 8.80417 39.9366C8.96805 40.0384 9.13192 40.1344 9.30145 40.2248C9.47099 40.3153 9.65182 40.3774 9.83266 40.4452C10.0078 40.5146 10.1871 40.5731 10.3695 40.6204C10.5556 40.6659 10.7444 40.6999 10.9346 40.7222C11.2941 40.7787 11.6602 40.7787 12.0197 40.7222H11.9914Z" fill="#1C1C1B"/>
<path d="M8.05299 37.7939C8.37377 37.8231 8.69706 37.8079 9.01369 37.7487C9.27376 37.7038 9.52656 37.6239 9.76528 37.5114C10.1981 37.2933 10.5931 37.0071 10.9351 36.6637C10.7768 36.6241 10.5564 36.5507 10.24 36.4829C10.0817 36.4433 9.9009 36.4094 9.67486 36.3698L8.97978 36.2285C8.38923 36.1031 7.77892 36.1031 7.18837 36.2285C6.69481 36.3485 6.17524 36.2987 5.71343 36.0873C6.11437 36.2243 6.54683 36.2401 6.95667 36.1325C7.42403 36.0179 7.90627 35.9759 8.3864 36.0082C8.8195 36.0391 9.24998 36.0995 9.67486 36.189L10.24 36.3133L10.7147 36.4263C9.81613 35.6973 8.79894 34.9401 7.66872 34.8779C7.13748 34.8829 6.61482 35.0126 6.1429 35.2566C5.88819 35.3631 5.62303 35.4426 5.35175 35.4939C5.01245 35.5635 4.66255 35.5635 4.32324 35.4939L4.48713 35.7256L4.67363 35.9403C4.79795 36.0873 4.92791 36.2286 5.06354 36.3642C5.19728 36.5024 5.34082 36.6309 5.49303 36.7485C5.63996 36.8652 5.79254 36.9783 5.95077 37.0875C6.10484 37.1964 6.26736 37.2927 6.43677 37.3757C6.60631 37.4605 6.77584 37.534 6.94537 37.6018C7.11628 37.6663 7.292 37.7174 7.47092 37.7544C7.66386 37.7804 7.85831 37.7936 8.05299 37.7939Z" fill="#1C1C1B"/>
<path d="M4.86559 34.0524C5.42344 34.2442 6.02244 34.2832 6.60047 34.1654C7.07112 34.0458 7.52083 33.8552 7.93414 33.6003C7.79286 33.5155 7.58377 33.4138 7.29556 33.2669C7.00735 33.12 6.62308 32.9617 6.16534 32.7413C5.84923 32.5998 5.51985 32.49 5.18205 32.4136C4.93276 32.3613 4.67937 32.3311 4.4248 32.3231C3.91511 32.3315 3.41811 32.1639 3.01766 31.8484C3.37453 32.0772 3.79195 32.1934 4.21569 32.1819C4.69619 32.1688 5.17553 32.2356 5.63413 32.3797C6.05242 32.5045 6.4605 32.6613 6.85477 32.8487C7.2447 33.0126 7.58376 33.1878 7.83806 33.3177C7.65723 33.086 7.48204 32.8487 7.27295 32.6283C7.08121 32.4046 6.87748 32.1914 6.66264 31.9897C6.54962 31.8937 6.44225 31.7976 6.32922 31.7128C6.21948 31.6204 6.10229 31.5373 5.97886 31.4642C5.73881 31.3162 5.48042 31.2003 5.2103 31.1195C4.69185 30.9972 4.15208 30.9972 3.63363 31.1195C3.02113 31.2521 2.38205 31.1806 1.81396 30.916C1.96542 31.2668 2.14104 31.6067 2.33953 31.9332C2.54635 32.2559 2.78284 32.5586 3.04592 32.8374C3.30164 33.1105 3.58796 33.3532 3.89923 33.5607C4.19807 33.7668 4.52306 33.9322 4.86559 34.0524Z" fill="#1C1C1B"/>
<path d="M2.61111 29.691C2.88566 29.857 3.17994 29.988 3.48705 30.0809C3.74287 30.1525 4.00692 30.1905 4.27254 30.1939C4.7572 30.1848 5.23756 30.1009 5.69664 29.9453C5.57796 29.8322 5.40278 29.6797 5.13153 29.4762C4.86027 29.2728 4.5664 29.0241 4.13127 28.7077C3.86186 28.4836 3.56575 28.2938 3.24969 28.1426C3.01814 28.0408 2.7803 27.954 2.53764 27.8826C2.31715 27.8233 2.10322 27.7419 1.89908 27.6396C1.78812 27.5786 1.68229 27.5086 1.58262 27.4305C1.46804 27.3322 1.36387 27.2224 1.2718 27.1028C1.57083 27.3988 1.95348 27.5961 2.36812 27.6679C2.55949 27.7138 2.74815 27.7704 2.93323 27.8374C3.19405 27.9284 3.44571 28.0438 3.68484 28.1821C4.06281 28.402 4.42531 28.6475 4.76985 28.9168C4.93938 29.0411 5.09196 29.1654 5.23324 29.2841L5.61751 29.5949L5.43103 29.1993C5.36887 29.0637 5.30106 28.9337 5.23324 28.8037C5.16543 28.6738 5.08632 28.5438 5.0072 28.4138C4.93871 28.2843 4.86129 28.1596 4.7755 28.0408C4.69639 27.9222 4.60596 27.8035 4.51554 27.6905C4.42512 27.5774 4.3347 27.4757 4.23298 27.374C4.03214 27.1732 3.80383 27.002 3.55486 26.8654C3.07789 26.6342 2.55338 26.5181 2.02341 26.5263C1.74624 26.5141 1.47134 26.4705 1.20399 26.3964C0.874459 26.296 0.567431 26.1329 0.299805 25.916C0.32806 26.1025 0.36762 26.289 0.407177 26.4811C0.446735 26.6733 0.514559 26.8485 0.576721 27.0462C0.638884 27.244 0.712334 27.4079 0.79145 27.6114C0.870941 27.7855 0.9596 27.9552 1.05705 28.12C1.15206 28.2837 1.25583 28.4421 1.36788 28.5947C1.48065 28.7424 1.60138 28.8839 1.72954 29.0185C1.98578 29.2881 2.28337 29.5151 2.61111 29.691Z" fill="#1C1C1B"/>
<path d="M1.3961 24.9259C1.51707 25.045 1.64541 25.1563 1.78037 25.2593C1.90273 25.349 2.03114 25.4302 2.16466 25.5023C2.39662 25.6328 2.64585 25.7298 2.90495 25.7905C3.37625 25.8921 3.86035 25.9207 4.34033 25.8753C4.24991 25.7397 4.12559 25.5475 3.92215 25.3102C3.82043 25.1858 3.69611 25.0389 3.57178 24.8807C3.44746 24.7225 3.28923 24.536 3.1197 24.3156C2.90127 24.0473 2.655 23.8029 2.38504 23.5866C2.1825 23.4337 1.96907 23.2958 1.74646 23.174C1.28642 22.9547 0.914024 22.5862 0.689706 22.1286C0.909662 22.4897 1.23236 22.777 1.6165 22.9537C2.05421 23.1558 2.45675 23.4268 2.80888 23.7561C3.12353 24.0563 3.41981 24.3753 3.69611 24.7112L4.06908 25.1745C4.18776 25.3215 4.28383 25.4514 4.36859 25.5645C4.36859 25.4232 4.31208 25.2819 4.27817 25.135C4.24427 24.9881 4.20471 24.8524 4.1708 24.7055C4.10089 24.4186 4.01023 24.1372 3.89954 23.8635C3.80444 23.5913 3.67735 23.3314 3.52092 23.0893C3.36368 22.8474 3.17348 22.6287 2.95581 22.4394C2.74582 22.2609 2.50943 22.116 2.25506 22.0099C2.01771 21.9138 1.78037 21.846 1.53172 21.7726C0.933606 21.6174 0.400904 21.2748 0.0115813 20.7949C-0.00684288 21.1718 0.00259446 21.5496 0.03983 21.9251C0.0848156 22.3078 0.16233 22.6859 0.271528 23.0554C0.386109 23.413 0.537616 23.7577 0.723611 24.0839C0.907531 24.3961 1.13385 24.6814 1.3961 24.9315V24.9259Z" fill="#1C1C1B"/>
<path d="M1.28233 20.0215C1.59433 20.5227 2.03547 20.9306 2.55947 21.2026C2.99985 21.406 3.4686 21.5413 3.94964 21.6038C3.89313 21.4512 3.79707 21.2365 3.66145 20.9426C3.59363 20.7957 3.51452 20.6318 3.41845 20.4453C3.37324 20.3493 3.32237 20.2532 3.26586 20.1458L3.10197 19.8124C2.83706 19.2712 2.46842 18.7874 2.01697 18.3883C1.84513 18.2399 1.68805 18.0753 1.54792 17.8967C1.39074 17.6678 1.27943 17.4107 1.22016 17.1394C1.3515 17.5414 1.60421 17.8929 1.9435 18.1453C2.32194 18.4428 2.65177 18.7975 2.92115 19.1964C3.04794 19.3784 3.16489 19.5671 3.27152 19.7615C3.37889 19.9537 3.47496 20.1458 3.57103 20.3267C3.76882 20.7053 3.91574 21.05 4.04006 21.31C4.06075 20.7212 4.0362 20.1318 3.96661 19.5468C3.92475 19.2629 3.85857 18.983 3.76882 18.7104C3.72055 18.5752 3.66392 18.4431 3.59928 18.3149C3.29826 17.7049 2.78033 17.2292 2.14695 16.9812C1.58985 16.6957 1.13989 16.2378 0.864134 15.6758C0.757095 16.0458 0.679617 16.4237 0.632436 16.806C0.632436 16.9981 0.598542 17.1903 0.592891 17.3711C0.579062 17.5592 0.579062 17.7481 0.592891 17.9362C0.592891 18.1284 0.632434 18.3149 0.666341 18.5013C0.666341 18.5918 0.700251 18.6822 0.722856 18.7726C0.74546 18.863 0.773724 18.9534 0.80198 19.0382C0.914935 19.387 1.07666 19.718 1.28233 20.0215Z" fill="#1C1C1B"/>
<path d="M2.27735 15.2135C2.38882 15.5139 2.53486 15.8003 2.7125 16.0669C2.87315 16.2811 3.06342 16.4713 3.27761 16.632C3.65649 16.9344 4.08213 17.173 4.5378 17.3384C4.50562 17.1006 4.46035 16.8648 4.40218 16.632C4.37204 16.4737 4.33249 16.2854 4.28351 16.0669C4.2383 15.8634 4.17049 15.6317 4.11963 15.3774C4.04192 15.0396 3.92627 14.7116 3.7749 14.3998C3.66351 14.1725 3.53306 13.9551 3.38497 13.7499C3.25152 13.5635 3.1361 13.3648 3.04026 13.1565C2.93609 12.8982 2.88607 12.6212 2.89332 12.3428C2.93301 12.759 3.0986 13.1533 3.36802 13.473C3.4935 13.6325 3.61047 13.7985 3.7184 13.9703C3.86207 14.2079 3.98497 14.4575 4.08572 14.7162C4.23668 15.1246 4.3631 15.5417 4.46434 15.9651C4.5152 16.1686 4.55476 16.3664 4.59432 16.5303C4.63388 16.6941 4.66778 16.875 4.69603 17.0162L4.79775 16.5924C4.83166 16.4455 4.86557 16.3042 4.89383 16.1573C4.92208 16.0103 4.93904 15.8634 4.96729 15.7165C4.99555 15.5696 5.00685 15.4283 5.01815 15.2814C5.02651 15.1364 5.02651 14.9911 5.01815 14.8462C5.02943 14.7033 5.02943 14.5597 5.01815 14.4167C4.98724 14.1357 4.91883 13.8601 4.81472 13.5973C4.58957 13.1143 4.25247 12.692 3.83141 12.3654C3.35091 11.964 3.01539 11.4161 2.87637 10.8057C2.78595 10.9714 2.7012 11.141 2.62208 11.3143C2.53371 11.4848 2.45997 11.6625 2.40168 11.8455C2.33344 12.0301 2.27682 12.2189 2.23215 12.4106C2.20423 12.5034 2.18159 12.5977 2.16434 12.6931C2.16434 12.7836 2.13042 12.8796 2.11347 12.9757C2.05551 13.3495 2.04035 13.7287 2.06827 14.1059C2.08127 14.4836 2.15178 14.8571 2.27735 15.2135Z" fill="#1C1C1B"/>
<path d="M4.33401 10.7481C4.37565 11.0667 4.45339 11.3795 4.56571 11.6805C4.66529 11.9274 4.79839 12.1594 4.96128 12.37C5.26545 12.7467 5.62568 13.0745 6.02935 13.3419C6.05333 13.1035 6.06465 12.8639 6.06326 12.6243C6.06326 12.4604 6.06326 12.2795 6.06326 12.0591C6.06326 11.8387 6.06326 11.6071 6.06326 11.3528C6.06757 11.0047 6.02961 10.6575 5.95023 10.3186C5.89342 10.0714 5.81592 9.82944 5.71853 9.59525C5.63297 9.38458 5.56493 9.16722 5.5151 8.94537C5.47374 8.67043 5.48719 8.39003 5.55466 8.12031C5.49363 8.54028 5.56472 8.96883 5.75809 9.3466C5.97007 9.77703 6.11127 10.2388 6.17627 10.7142C6.23227 11.1471 6.2606 11.5831 6.26105 12.0196C6.26105 12.2287 6.26105 12.4321 6.26105 12.5847C6.26105 12.7373 6.26105 12.9407 6.26105 13.082C6.32886 12.952 6.39102 12.822 6.45319 12.6864C6.51535 12.5508 6.58881 12.4208 6.64532 12.2852C6.70183 12.1496 6.76399 12.0139 6.82051 11.8783C6.87702 11.7427 6.92787 11.6014 6.97308 11.4658C7.01829 11.3301 7.0522 11.1832 7.08611 11.0419C7.11931 10.9042 7.14385 10.7645 7.15958 10.6238C7.19916 10.3426 7.19916 10.0573 7.15958 9.77609C7.02703 9.26606 6.77742 8.79394 6.43058 8.39721C6.06118 7.89655 5.86301 7.29015 5.86546 6.66797C5.60903 6.94951 5.37653 7.25195 5.17037 7.57215C5.06349 7.73141 4.96722 7.89753 4.88217 8.06945C4.83697 8.15421 4.79175 8.23898 4.75219 8.32375C4.71263 8.40851 4.67307 8.49893 4.63916 8.58935C4.35734 9.27177 4.25239 10.0143 4.33401 10.7481Z" fill="#1C1C1B"/>
<path d="M7.34056 6.86512C7.29989 7.18595 7.29989 7.51063 7.34056 7.83146C7.38006 8.09322 7.45616 8.34813 7.56661 8.58871C7.77819 9.02482 8.05656 9.42522 8.39167 9.77545C8.44253 9.62287 8.51034 9.39682 8.58381 9.08036C8.62337 8.92778 8.66858 8.74694 8.71379 8.51525C8.759 8.28355 8.8042 8.07446 8.86071 7.82581C8.93956 7.48662 8.98125 7.13986 8.98503 6.79165C8.98185 6.53975 8.95918 6.28846 8.91722 6.04005C8.88051 5.81403 8.8635 5.58524 8.86637 5.35627C8.89015 5.08047 8.9669 4.81185 9.09241 4.56511C8.94114 4.96007 8.91356 5.3917 9.0133 5.80271C9.1237 6.27074 9.15804 6.75349 9.11502 7.23244C9.03827 8.03377 8.89653 8.82755 8.69118 9.60591C8.87767 9.38552 9.06981 9.15948 9.25629 8.92213C9.44278 8.68478 9.60667 8.44178 9.7536 8.19313C9.90058 7.94464 10.0254 7.68368 10.1266 7.41328C10.178 7.28139 10.2177 7.14524 10.2452 7.0064C10.3979 6.34156 10.295 5.64362 9.95703 5.05111C9.70272 4.47964 9.64123 3.84094 9.78185 3.23145C9.47025 3.45009 9.17556 3.69189 8.90027 3.95479C8.76464 4.09042 8.63467 4.2317 8.51034 4.37862C8.38121 4.51934 8.26402 4.67056 8.15998 4.83071C7.71893 5.4285 7.43697 6.12852 7.34056 6.86512Z" fill="#1C1C1B"/>
<path d="M11.1439 3.76352C10.9401 4.3162 10.8893 4.91363 10.9969 5.49276C11.0988 5.96552 11.2742 6.41937 11.5168 6.83773C11.6016 6.70211 11.7146 6.49301 11.8615 6.20481C11.935 6.06353 12.0198 5.89965 12.1102 5.70751C12.2006 5.51537 12.2967 5.30063 12.4097 5.06893C12.677 4.52913 12.8326 3.94101 12.8675 3.33969C12.8815 3.11297 12.9156 2.88794 12.9692 2.6672C13.0549 2.40189 13.1891 2.15473 13.3648 1.93821C13.1292 2.29067 13.0069 2.70671 13.0144 3.1306C13.0151 3.61243 12.9388 4.09128 12.7883 4.54903C12.7205 4.75247 12.647 4.96156 12.5623 5.165L12.2967 5.73011C12.1158 6.11439 11.935 6.44215 11.805 6.70211C12.0311 6.52127 12.2741 6.35174 12.5001 6.13699C12.7273 5.94909 12.9443 5.74913 13.15 5.53797C13.3576 5.33066 13.5467 5.10565 13.7151 4.86549C13.7886 4.74682 13.8564 4.61684 13.9186 4.49252C13.9811 4.36545 14.0321 4.23307 14.0711 4.09694C14.1983 3.58098 14.1983 3.04188 14.0711 2.52592C13.9516 1.91095 14.037 1.27376 14.3141 0.711914C13.959 0.853171 13.6152 1.02131 13.2856 1.21486C12.9612 1.41843 12.6532 1.64706 12.3645 1.89865C12.2289 2.02863 12.0932 2.16425 11.9689 2.30553C11.843 2.44355 11.7278 2.5909 11.6242 2.74632C11.4164 3.06077 11.2547 3.4033 11.1439 3.76352Z" fill="#1C1C1B"/>
<path d="M21.7168 37.9478C21.8129 38.0721 21.9033 38.1908 21.9825 38.3094C22.0616 38.4281 22.1407 38.5411 22.2085 38.6542C22.3353 38.8724 22.443 39.1012 22.5306 39.3379C22.6884 39.7937 22.7946 40.2657 22.8471 40.7451C22.6341 40.6471 22.4266 40.5377 22.2254 40.4173C21.8815 40.2133 21.5579 39.9767 21.2591 39.7109L21.0557 39.5244L20.8918 39.3323C20.8003 39.2199 20.7171 39.1009 20.6431 38.9763C20.5298 38.7692 20.437 38.5516 20.3662 38.3264C20.2645 37.9042 20.0563 37.5151 19.7616 37.1962C19.9845 37.4934 20.1371 37.8373 20.208 38.2021C20.3043 38.6456 20.4973 39.0623 20.7731 39.4227C21.2614 40.0187 21.8724 40.5025 22.5645 40.8411C21.4343 40.8411 20.1232 40.4569 19.5977 39.4905C19.3737 39.023 19.28 38.5037 19.3264 37.9873C19.352 37.4097 19.2597 36.8328 19.0552 36.292C20.1013 36.534 21.0374 37.1164 21.7168 37.9478Z" fill="#1C1C1B"/>
<path d="M18.1521 37.2907C18.3945 37.7712 18.555 38.2888 18.6268 38.8222C18.6776 39.2993 18.6776 39.7804 18.6268 40.2575C18.1138 39.8816 17.6685 39.4211 17.3101 38.8956C17.1158 38.6412 16.9684 38.3542 16.875 38.048C16.8127 37.8166 16.7711 37.5802 16.7506 37.3416C16.7361 37.1349 16.7097 36.9292 16.6715 36.7256C16.6257 36.5019 16.5416 36.2878 16.4229 36.0927C16.5703 36.433 16.6416 36.8013 16.632 37.172C16.6247 37.6249 16.7153 38.0741 16.8976 38.4887C16.9771 38.6861 17.0755 38.8754 17.1914 39.0539C17.3015 39.2284 17.4242 39.3947 17.5588 39.5512C17.6944 39.7037 17.8244 39.845 17.9543 39.975L18.1465 40.1558C18.203 40.2123 18.2652 40.2575 18.316 40.3028C17.7465 40.1631 17.2055 39.926 16.7167 39.602C16.4856 39.448 16.2813 39.2571 16.1121 39.0369C15.9408 38.8272 15.8139 38.585 15.7391 38.3249C15.6291 37.8205 15.6545 37.2961 15.8125 36.8047C15.9634 36.2529 16.0038 35.6768 15.9312 35.1094C16.8907 35.5733 17.671 36.3398 18.1521 37.2907Z" fill="#1C1C1B"/>
<path d="M14.8284 35.8336C14.8919 36.1144 14.9334 36.3997 14.9527 36.6869C14.9754 36.937 14.9754 37.1885 14.9527 37.4385C14.8913 37.9161 14.7795 38.3859 14.6193 38.84C14.467 38.6602 14.3255 38.4715 14.1955 38.2749C14.0969 38.1264 14.0082 37.9716 13.9299 37.8115C13.8394 37.6344 13.7434 37.4461 13.6417 37.2464C13.4207 36.7281 13.3559 36.1565 13.4552 35.6019C13.4896 35.3963 13.5103 35.1887 13.5173 34.9803C13.5219 34.752 13.4875 34.5246 13.4156 34.3078C13.4364 34.4122 13.4497 34.518 13.4552 34.6243C13.4608 34.7146 13.4608 34.8052 13.4552 34.8955C13.4399 35.0685 13.4134 35.2402 13.376 35.4098C13.2642 35.8478 13.2506 36.3052 13.3365 36.7491C13.3779 36.9522 13.4327 37.1523 13.5004 37.3481C13.5734 37.5416 13.6583 37.7303 13.7547 37.9132C13.8394 38.086 13.9337 38.2539 14.0372 38.4162C14.139 38.5688 14.235 38.7044 14.3198 38.8174L13.9355 38.6027C13.8112 38.5292 13.6869 38.4388 13.5682 38.354L13.2235 38.0771C13.1162 37.9811 13.0143 37.8792 12.9183 37.772C12.5359 37.3719 12.3008 36.8539 12.2515 36.3027C12.2597 35.7847 12.4039 35.278 12.6696 34.8334C12.9426 34.3276 13.1117 33.7723 13.1669 33.2002C13.9949 33.8718 14.5788 34.7972 14.8284 35.8336Z" fill="#1C1C1B"/>
<path d="M11.913 33.6695C11.9113 33.9551 11.8905 34.2401 11.8508 34.5229C11.8072 34.7716 11.7468 35.017 11.67 35.2575C11.503 35.7082 11.289 36.1401 11.0314 36.546C10.9173 36.3405 10.8227 36.1249 10.7489 35.9017C10.6843 35.7356 10.6295 35.5658 10.585 35.3931C10.5398 35.201 10.4889 34.9863 10.4493 34.7433C10.3935 34.4274 10.3935 34.1041 10.4493 33.7882C10.492 33.5548 10.5563 33.3259 10.6415 33.1044C10.8385 32.711 10.9264 32.2719 10.8958 31.8329C10.8826 32.2038 10.7861 32.5669 10.6132 32.8953C10.4056 33.2982 10.2898 33.7421 10.2742 34.1951C10.2669 34.8007 10.3723 35.4024 10.585 35.9696C10.6472 36.1391 10.7093 36.2973 10.7658 36.4273C9.88425 35.6757 9.12134 34.5907 9.31913 33.5057C9.44157 33.0039 9.69511 32.5436 10.0538 32.172C10.2249 31.9684 10.3816 31.7531 10.5228 31.5278C10.6807 31.2637 10.8095 30.9832 10.9071 30.6914C11.5608 31.5465 11.9143 32.5932 11.913 33.6695Z" fill="#1C1C1B"/>
<path d="M9.55649 30.9054C9.44438 31.4335 9.24172 31.9383 8.95747 32.3973C8.70112 32.808 8.39767 33.1873 8.05329 33.5275C7.98938 33.3018 7.94402 33.0712 7.91767 32.8381C7.87462 32.4421 7.86516 32.0433 7.8894 31.6457C7.90228 31.3241 7.96915 31.007 8.0872 30.7076C8.18321 30.4905 8.2986 30.2824 8.43192 30.086C8.70825 29.7443 8.89299 29.3378 8.96877 28.9049C8.86852 29.2642 8.68893 29.5963 8.44322 29.8769C8.15705 30.2279 7.94552 30.6337 7.82159 31.0693C7.7242 31.4686 7.6805 31.8791 7.69163 32.2899C7.70046 32.6465 7.73824 33.0019 7.80464 33.3523C7.63322 33.1135 7.47659 32.8644 7.3356 32.6064C7.19799 32.3494 7.08811 32.0785 7.00783 31.7983C6.9637 31.6623 6.9334 31.5222 6.91741 31.3801C6.89961 31.2433 6.89018 31.1055 6.88916 30.9676C6.89064 30.6974 6.94637 30.4303 7.05305 30.1821C7.28418 29.7224 7.63327 29.3323 8.0646 29.0518C8.53195 28.7195 8.92782 28.2968 9.22873 27.8086C9.67512 28.7769 9.79029 29.8652 9.55649 30.9054Z" fill="#1C1C1B"/>
<path d="M7.88947 27.6788C7.76329 27.9362 7.61784 28.1836 7.45434 28.4191C7.30819 28.6189 7.14764 28.8078 6.97399 28.9842C6.62948 29.3155 6.25059 29.6092 5.84376 29.8601C5.8289 29.6268 5.8289 29.3927 5.84376 29.1594C5.89676 28.7642 5.97798 28.3732 6.08678 27.9896C6.17315 27.6807 6.31066 27.3884 6.49364 27.125C6.63336 26.9305 6.79449 26.7523 6.97399 26.5938C7.12927 26.4554 7.27644 26.3083 7.41478 26.153C7.48147 26.069 7.54191 25.9802 7.59562 25.8874C7.66157 25.7862 7.71651 25.6782 7.7595 25.5653C7.57909 25.8897 7.33268 26.1727 7.03616 26.396C6.88308 26.5146 6.73948 26.645 6.60667 26.7859C6.42799 26.972 6.27758 27.1834 6.16023 27.4132C5.96886 27.7774 5.83179 28.1677 5.75334 28.5717C5.71379 28.7694 5.67989 28.9616 5.65729 29.1368C5.63468 29.312 5.65729 29.4815 5.62338 29.6228C5.56196 29.49 5.50726 29.3542 5.45949 29.2159C5.41428 29.0746 5.36907 28.9333 5.33517 28.7921C5.2951 28.6508 5.26303 28.5074 5.23911 28.3626C5.23911 28.2156 5.20519 28.0744 5.19389 27.9274C5.18537 27.7882 5.18537 27.6485 5.19389 27.5092C5.20731 27.3722 5.22996 27.2363 5.2617 27.1024C5.32581 26.8388 5.43891 26.5895 5.59511 26.3677C5.93076 25.9724 6.36294 25.6707 6.84966 25.4918C7.09113 25.3829 7.32522 25.2583 7.55042 25.1188C7.81079 24.9614 8.05005 24.7715 8.26244 24.5537C8.4895 25.6079 8.35824 26.7077 7.88947 27.6788Z" fill="#1C1C1B"/>
<path d="M6.99578 24.1871C6.9018 24.3052 6.80184 24.4184 6.69627 24.5262C6.6059 24.626 6.50965 24.7204 6.40806 24.8087C6.22125 24.9799 6.01882 25.1332 5.8034 25.2665C5.39173 25.5138 4.95391 25.7147 4.49797 25.8655C4.54005 25.6344 4.60247 25.4075 4.68447 25.1874C4.73533 25.0404 4.79184 24.8766 4.87661 24.6901C4.96137 24.5036 5.0631 24.3114 5.18177 24.125C5.33482 23.8405 5.53551 23.5844 5.77513 23.3677C5.95155 23.2162 6.14061 23.0801 6.34025 22.9608C6.73949 22.7771 7.08415 22.4928 7.34049 22.1358C7.08607 22.4013 6.7751 22.606 6.43067 22.7348C6.01911 22.922 5.6514 23.1934 5.3513 23.5316C5.09962 23.8486 4.89238 24.1984 4.73533 24.5714C4.65121 24.7431 4.57945 24.9207 4.52058 25.1026C4.46407 25.2721 4.41321 25.436 4.37365 25.5716C4.37365 25.4304 4.32845 25.2834 4.31149 25.1365C4.29178 24.9904 4.28046 24.8432 4.27759 24.6957C4.27257 24.4044 4.29336 24.1131 4.33974 23.8255C4.39123 23.5515 4.47865 23.2854 4.59971 23.0343C4.72228 22.7926 4.88903 22.576 5.09135 22.3957C5.2907 22.224 5.5208 22.0917 5.76948 22.0058C6.00682 21.9267 6.25548 21.8758 6.50413 21.8193C7.0691 21.7247 7.60918 21.5171 8.0921 21.209C8.07328 22.297 7.68689 23.3466 6.99578 24.1871Z" fill="#1C1C1B"/>
<path d="M6.90538 20.5296C6.48527 20.8677 6.01157 21.1332 5.50389 21.3151C5.04891 21.463 4.57885 21.5597 4.10242 21.6033C4.19255 21.3884 4.30226 21.1822 4.43018 20.9874C4.51683 20.8517 4.61856 20.7048 4.73535 20.5466L4.92748 20.2979C4.9953 20.2132 5.07441 20.1284 5.15918 20.038C5.37111 19.7965 5.62355 19.5937 5.90513 19.439C6.11609 19.3271 6.33755 19.2362 6.56631 19.1677C6.75874 19.1118 6.94748 19.0438 7.13142 18.9643C7.34041 18.8719 7.53166 18.7438 7.69653 18.5856C7.39248 18.8006 7.04545 18.9471 6.67934 19.0151C6.23122 19.1131 5.80924 19.3057 5.44174 19.5802C5.27671 19.7013 5.12174 19.8355 4.97834 19.9815C4.83075 20.125 4.6947 20.2799 4.57146 20.4449C4.3577 20.7256 4.16862 21.0244 4.00635 21.3377C4.0235 20.756 4.14406 20.1819 4.36237 19.6424C4.47078 19.3857 4.61542 19.146 4.79186 18.9304C4.88024 18.8288 4.97459 18.7325 5.07442 18.6421C5.17945 18.5571 5.29309 18.4832 5.41349 18.4218C5.88363 18.2072 6.40288 18.1233 6.91667 18.1788C7.49193 18.2127 8.06819 18.132 8.61201 17.9414C8.34405 18.9687 7.74405 19.8786 6.90538 20.5296Z" fill="#1C1C1B"/>
<path d="M7.64026 16.9758C7.3825 17.0999 7.11388 17.2002 6.8378 17.2753C6.59623 17.3475 6.34835 17.3967 6.0975 17.4222C5.61937 17.4673 5.13758 17.4559 4.66211 17.3883C4.80543 17.2035 4.95821 17.0262 5.11985 16.8571C5.23287 16.7497 5.36851 16.6311 5.52109 16.5011C5.67367 16.3711 5.83755 16.2355 6.04664 16.0999C6.30927 15.9141 6.60168 15.7746 6.91126 15.6873C7.14034 15.6257 7.37515 15.5878 7.612 15.5743C7.82042 15.5684 8.02816 15.5477 8.23362 15.5121C8.45864 15.4707 8.67472 15.3904 8.8722 15.2748C8.52785 15.4132 8.15798 15.4768 7.78718 15.4613C7.5982 15.4574 7.40922 15.4687 7.22207 15.4952C6.96483 15.5263 6.71351 15.5948 6.47612 15.6986C6.09889 15.8628 5.74691 16.0797 5.43067 16.3429L4.99552 16.7271C4.86555 16.8515 4.75818 16.9758 4.66211 17.0832C4.70732 16.9475 4.74123 16.8062 4.79209 16.665C4.84295 16.5237 4.90511 16.3881 4.96162 16.2581C5.02072 16.1229 5.08674 15.9909 5.15941 15.8625C5.23853 15.7382 5.31764 15.6139 5.40241 15.5008C5.48327 15.3856 5.57202 15.2761 5.66801 15.1731C5.7661 15.0765 5.8699 14.9859 5.97883 14.9018C6.19345 14.7356 6.43951 14.6144 6.70217 14.5458C7.20708 14.4446 7.72983 14.4797 8.21667 14.6475C8.76593 14.811 9.34199 14.8647 9.91201 14.8057C9.41869 15.7627 8.61884 16.5268 7.64026 16.9758Z" fill="#1C1C1B"/>
<path d="M9.16062 13.682C8.87972 13.7428 8.59435 13.7806 8.30731 13.7951C8.05717 13.8151 7.80583 13.8151 7.5557 13.7951C7.08071 13.7246 6.61465 13.6033 6.16553 13.4334C6.34541 13.2846 6.53413 13.1468 6.73064 13.0208C6.86062 12.9417 7.01884 12.857 7.19968 12.7665C7.39377 12.6643 7.59382 12.5737 7.79871 12.4953C8.09776 12.3735 8.41454 12.301 8.73678 12.2806C8.97536 12.2776 9.2137 12.2965 9.44883 12.3371C9.65272 12.3723 9.85833 12.3969 10.0648 12.4105C10.2944 12.4198 10.5238 12.3892 10.7429 12.3201C10.3756 12.3818 9.99906 12.3606 9.64096 12.2579C9.20409 12.1418 8.74741 12.1206 8.30165 12.1958C7.89666 12.2683 7.50446 12.3996 7.13752 12.5857C6.95669 12.6761 6.7815 12.7722 6.62327 12.8626C6.46504 12.953 6.33506 13.0548 6.22204 13.1339C6.28986 13.0095 6.36331 12.8796 6.44243 12.7552C6.52154 12.6309 6.61197 12.5122 6.70239 12.3936C6.79281 12.2749 6.87757 12.1619 6.97929 12.0545L7.29575 11.755C7.40058 11.6623 7.51201 11.5773 7.62917 11.5007C7.74731 11.4271 7.87 11.361 7.99649 11.3029C8.24199 11.1919 8.50702 11.1304 8.77634 11.1221C9.29272 11.1378 9.79576 11.2898 10.2343 11.5629C10.7332 11.8485 11.2851 12.0293 11.8562 12.0941C11.1606 12.91 10.2115 13.4692 9.16062 13.682Z" fill="#1C1C1B"/>
<path d="M11.3868 10.8115C11.1008 10.8068 10.8155 10.7803 10.5335 10.7324C10.2855 10.6867 10.0416 10.6205 9.8045 10.5346C9.35573 10.3619 8.92741 10.1402 8.52734 9.87342C8.73722 9.76762 8.9544 9.67697 9.17722 9.60217C9.32415 9.55131 9.49934 9.5061 9.69147 9.45524C9.90578 9.40103 10.1227 9.35765 10.3414 9.32526C10.6576 9.27359 10.9801 9.27359 11.2964 9.32526C11.5304 9.37314 11.7594 9.44315 11.9802 9.53436C12.1646 9.61597 12.3532 9.68765 12.5453 9.7491C12.7661 9.80876 12.9955 9.82979 13.2234 9.81126C12.8511 9.78922 12.4883 9.68501 12.161 9.5061C11.7596 9.29581 11.319 9.17075 10.8669 9.13878C10.099 9.12703 9.33756 9.28124 8.63472 9.59087C8.82585 9.3678 9.03777 9.16344 9.26764 8.98055C9.48808 8.78814 9.73095 8.62306 9.99098 8.4889C10.2364 8.35416 10.5015 8.25881 10.7765 8.20634C10.9073 8.18293 11.0394 8.16782 11.1721 8.16113C11.3086 8.1631 11.4446 8.17633 11.5789 8.20069C12.078 8.3332 12.5325 8.59658 12.8957 8.96359C13.3203 9.35024 13.8179 9.64806 14.3593 9.83952C13.5041 10.4849 12.4581 10.8269 11.3868 10.8115Z" fill="#1C1C1B"/>
<path d="M14.2019 8.51079C13.6768 8.38875 13.1762 8.17856 12.7213 7.88916C12.3228 7.61946 11.9552 7.30677 11.625 6.95673C11.8531 6.89862 12.0856 6.85894 12.3201 6.83805C12.4783 6.83805 12.6535 6.83805 12.8513 6.83805C13.0715 6.82468 13.2923 6.82468 13.5125 6.83805C14.0733 6.86835 14.6124 7.06509 15.0609 7.40317C15.23 7.52538 15.4054 7.63856 15.5864 7.74224C15.7878 7.84901 16.0055 7.92158 16.2307 7.95698C15.8749 7.8508 15.5469 7.6675 15.27 7.42012C14.9276 7.12414 14.5273 6.9028 14.0945 6.77024C13.8956 6.71824 13.6937 6.6786 13.4899 6.65157C13.2855 6.62634 13.0798 6.61501 12.8739 6.61766C12.5178 6.61704 12.1623 6.64729 11.8115 6.70808C12.0516 6.53765 12.3048 6.38648 12.5687 6.25599C12.8275 6.1208 13.1004 6.01466 13.3825 5.93953C13.6511 5.8662 13.9293 5.83381 14.2076 5.84346C14.4789 5.84488 14.7468 5.90462 14.9931 6.01864C15.4559 6.25555 15.8463 6.61279 16.1233 7.0528C16.449 7.52757 16.8659 7.93288 17.3496 8.24519C16.36 8.68475 15.2512 8.77831 14.2019 8.51079Z" fill="#1C1C1B"/>
<path d="M30.8892 4.57082C30.5158 4.43859 30.1546 4.27408 29.8098 4.07917C29.6715 3.99973 29.5375 3.91295 29.4085 3.81922C29.2785 3.7401 29.1656 3.66099 29.0469 3.58187C28.8268 3.41934 28.5923 3.27746 28.3461 3.15804C28.2163 3.099 28.0822 3.04988 27.9449 3.01111L27.7132 2.9546H27.4589C27.7231 2.99612 27.9788 3.08009 28.2161 3.20324C28.3179 3.2541 28.4139 3.31062 28.51 3.36713L28.7813 3.56492C28.9677 3.70054 29.1542 3.84182 29.3803 3.9944C29.5024 4.07984 29.6288 4.15905 29.7589 4.23175L30.2167 4.4804C30.4371 4.59907 30.6687 4.69514 30.8948 4.79121C31.1208 4.88728 31.3525 4.98335 31.5729 5.06811L32.1946 5.30546C32.3923 5.36762 32.5675 5.43544 32.7201 5.49195L32.2793 5.53716H31.8611C31.7085 5.53716 31.5616 5.53716 31.4147 5.53716C31.2641 5.54567 31.1132 5.54567 30.9626 5.53716C30.8148 5.52859 30.6677 5.5116 30.5218 5.4863C30.3735 5.46816 30.2264 5.44175 30.081 5.40718C29.7848 5.32627 29.4987 5.21254 29.2277 5.06811C28.7019 4.7428 28.2244 4.34522 27.8093 3.88703C27.2946 3.35136 26.6473 2.96142 25.9331 2.75681C26.5247 2.41393 27.1846 2.20556 27.8658 2.14648C28.0523 2.14648 28.2388 2.14648 28.4309 2.14648C28.6202 2.15068 28.809 2.16767 28.996 2.19734C29.4044 2.26229 29.8031 2.3781 30.1828 2.54206C30.8651 2.81812 31.4786 3.24059 31.9798 3.77966C32.0855 3.89369 32.1837 4.0145 32.2736 4.14133C32.3641 4.26566 32.4488 4.38998 32.528 4.5143C32.6869 4.76815 32.8285 5.03247 32.9518 5.30546C32.7766 5.26025 32.5336 5.16984 32.1889 5.05681L31.6238 4.83642L30.8892 4.57082Z" fill="#1C1C1B"/>
<path d="M25.4579 43.5869C25.3054 43.4795 25.1754 43.3778 25.0567 43.276C24.9437 43.1725 24.8362 43.0631 24.7346 42.9483C24.5628 42.7458 24.4184 42.5216 24.3051 42.2814C24.1074 41.8429 23.9814 41.3754 23.9321 40.8969C24.1539 40.981 24.3709 41.0772 24.582 41.1851C24.8759 41.3377 25.2432 41.5185 25.7122 41.7502C25.8014 41.7946 25.8882 41.8436 25.9722 41.8972L26.2039 42.0384C26.3343 42.1243 26.4589 42.2187 26.5769 42.321C26.7806 42.4934 26.9696 42.6824 27.142 42.8861C27.4505 43.2908 27.8866 43.5795 28.3796 43.7055C27.978 43.5645 27.6291 43.3042 27.3793 42.9596C27.0898 42.5754 26.7429 42.238 26.3508 41.9593C25.6851 41.5275 24.9859 41.1495 24.2599 40.8291C25.3901 40.8291 26.6899 40.8856 27.6054 41.5524C28.0158 41.8904 28.3411 42.3202 28.5548 42.807C28.6815 43.0512 28.835 43.2806 29.0125 43.4908C29.2431 43.7503 29.5212 43.9632 29.8319 44.1181C29.4613 44.2176 29.0834 44.2875 28.7017 44.3271C28.3256 44.3597 27.9475 44.3597 27.5715 44.3271C26.8147 44.2677 26.0864 44.0126 25.4579 43.5869Z" fill="#1C1C1B"/>
<path d="M30.2963 42.6892C29.7408 42.4889 29.2505 42.1412 28.8778 41.6833C28.5863 41.2957 28.3574 40.8647 28.1997 40.4061C28.5162 40.457 29.1095 40.5926 30.1267 40.8638C30.4639 40.9479 30.7902 41.0712 31.0987 41.2312C31.3237 41.3456 31.5391 41.4779 31.7429 41.6267C31.9184 41.7647 32.1078 41.8841 32.3081 41.9828C32.5652 42.0927 32.8422 42.1485 33.1218 42.1466C32.7019 42.105 32.306 41.9308 31.9916 41.6494C31.6244 41.341 31.2104 41.093 30.7653 40.9147C30.5622 40.8285 30.3547 40.7531 30.1437 40.6887C29.929 40.6208 29.7255 40.57 29.5164 40.5078C29.3073 40.4457 29.1208 40.4061 28.9513 40.3665C28.7817 40.327 28.6122 40.2931 28.4709 40.2535C29.0427 40.1123 29.6247 40.0159 30.2115 39.9653C30.4993 39.9426 30.7884 39.9426 31.0761 39.9653C31.4829 40.0106 31.875 40.1437 32.2253 40.3554C32.5756 40.5672 32.8757 40.8525 33.1049 41.1916C33.4959 41.6814 34.0386 42.0273 34.6476 42.1749C33.977 42.5475 33.2431 42.7928 32.4832 42.8983C32.2911 42.8983 32.099 42.9378 31.9181 42.9435H31.6412H31.3643C30.998 42.9102 30.6383 42.8245 30.2963 42.6892Z" fill="#1C1C1B"/>
<path d="M34.7994 40.7161C34.4806 40.673 34.1689 40.5875 33.8726 40.4618C33.627 40.3585 33.3969 40.2215 33.1888 40.0549C32.8189 39.7455 32.5003 39.3792 32.2451 38.9699C32.4033 38.9699 32.6351 38.9699 32.9628 38.9699C33.2906 38.9699 33.6918 38.9699 34.223 38.9982C34.8251 39.0011 35.42 39.1301 35.9692 39.3768C36.1788 39.4667 36.3964 39.5367 36.6191 39.5859C36.891 39.6448 37.1723 39.6448 37.4442 39.5859C37.3181 39.594 37.1916 39.594 37.0655 39.5859C36.9589 39.5808 36.8529 39.5657 36.7491 39.5407C36.5682 39.491 36.3923 39.4248 36.2235 39.3429C35.7929 39.1269 35.3317 38.9782 34.8559 38.9021C34.6412 38.8631 34.4241 38.8385 34.2061 38.8286C33.9857 38.8286 33.7653 38.7947 33.5562 38.7891H32.9911C32.8046 38.7891 32.635 38.7891 32.4938 38.7891C32.6237 38.7269 32.7594 38.6591 32.895 38.6026C33.0306 38.5461 33.1606 38.4726 33.2962 38.4161L33.7088 38.2522C33.8501 38.207 33.9857 38.1505 34.127 38.111C34.6723 37.9278 35.2535 37.8775 35.8223 37.964C36.3383 38.0866 36.8183 38.3286 37.2238 38.6704C37.7071 39.0534 38.3025 39.2678 38.9191 39.2807C38.7778 39.4051 38.6309 39.5237 38.4839 39.6424C38.337 39.7611 38.1675 39.8628 38.0036 39.9645C37.8411 40.0675 37.6732 40.1618 37.5007 40.2471C37.3255 40.3262 37.1503 40.4053 36.9751 40.4731C36.7999 40.5409 36.6191 40.5974 36.4382 40.6483C36.2574 40.6992 36.0709 40.7218 35.8731 40.75C35.6753 40.7783 35.5115 40.7839 35.308 40.7896C35.1372 40.775 34.9674 40.7505 34.7994 40.7161Z" fill="#1C1C1B"/>
<path d="M38.7446 37.7774C38.5753 37.7883 38.4054 37.7883 38.2361 37.7774C38.0843 37.7683 37.9333 37.7494 37.784 37.7209C37.5221 37.676 37.2674 37.5961 37.0267 37.4835C36.5961 37.2642 36.2016 36.9802 35.8569 36.6415C36.0152 36.5963 36.2355 36.5228 36.552 36.455L37.1171 36.342L37.8066 36.2007L38.1061 36.1499L38.3717 36.116C38.5279 36.1051 38.6845 36.1051 38.8407 36.116C39.0946 36.125 39.3477 36.1515 39.598 36.1951C40.0935 36.3137 40.6144 36.264 41.0786 36.0538C40.6767 36.1952 40.2417 36.2129 39.8297 36.1047C39.3642 35.99 38.8841 35.9462 38.4056 35.9747C37.9708 36.0103 37.5386 36.0725 37.1115 36.1612L36.5464 36.2855C36.3655 36.325 36.2016 36.3646 36.066 36.4042C36.9646 35.6695 37.9818 34.9123 39.1176 34.8501C39.3907 34.8409 39.6635 34.8752 39.9257 34.9518C40.1687 35.0253 40.4004 35.127 40.6434 35.2231C40.8958 35.3305 41.1592 35.4101 41.4289 35.4604C41.7682 35.53 42.1181 35.53 42.4574 35.4604C42.0181 36.0873 41.4685 36.6292 40.8356 37.0597C40.2114 37.4738 39.4915 37.7209 38.7446 37.7774Z" fill="#1C1C1B"/>
<path d="M41.9255 34.0377C41.3668 34.2256 40.7689 34.2645 40.1906 34.1508C39.7191 34.0336 39.2691 33.8428 38.8569 33.5857C38.9982 33.5065 39.213 33.3992 39.4955 33.2579C39.7781 33.1166 40.168 32.9471 40.6257 32.7267C40.8179 32.6419 40.9931 32.5741 41.1909 32.5176L41.6373 32.3933C41.8874 32.3466 42.1404 32.3164 42.3945 32.3028C42.9047 32.3141 43.4026 32.1461 43.8017 31.8282C43.4449 32.0572 43.0274 32.1734 42.6036 32.1616C42.1233 32.1517 41.6445 32.2185 41.1852 32.3594C40.7676 32.4886 40.3598 32.6473 39.9646 32.8341C39.5746 32.9979 39.2355 33.1731 38.9812 33.3031C39.1621 33.0714 39.3429 32.8397 39.5464 32.6193C39.7366 32.3925 39.9404 32.1773 40.1567 31.9751C40.368 31.7792 40.5969 31.6033 40.8405 31.4495C41.0813 31.2993 41.3419 31.1833 41.6147 31.1048C42.1309 30.9801 42.6694 30.9801 43.1857 31.1048C43.7982 31.2374 44.4373 31.166 45.0054 30.9014C44.8573 31.252 44.6816 31.5902 44.4798 31.9129C44.2736 32.2363 44.0391 32.5408 43.7791 32.8227C43.5187 33.0948 43.2309 33.3391 42.9201 33.5517C42.6115 33.7569 42.277 33.9203 41.9255 34.0377Z" fill="#1C1C1B"/>
<path d="M44.1859 29.6679C43.9076 29.8291 43.6118 29.9581 43.3043 30.0522C43.0494 30.1285 42.7849 30.1685 42.5188 30.1708C42.0341 30.1621 41.5537 30.0782 41.0947 29.9222C41.2077 29.8092 41.3886 29.6566 41.6598 29.4531C41.9311 29.2497 42.2249 29.001 42.6544 28.6789C42.9268 28.4563 43.2247 28.2666 43.5416 28.1138C43.7718 28.007 44.0098 27.9182 44.2537 27.8482C44.4724 27.789 44.6845 27.7076 44.8866 27.6052C44.9992 27.5468 45.1052 27.4768 45.2031 27.3961C45.3164 27.2965 45.4204 27.1868 45.5139 27.0684C45.2175 27.3649 44.8364 27.5623 44.4232 27.6335C44.2319 27.6796 44.0432 27.7362 43.8581 27.803C43.5996 27.8975 43.35 28.0148 43.1121 28.1534C42.7342 28.3733 42.3717 28.6187 42.0271 28.888C41.8576 29.0124 41.705 29.1367 41.5637 29.2553L41.1795 29.5662C41.3038 29.3062 41.4281 29.035 41.5637 28.775C41.6316 28.6394 41.7107 28.5151 41.7841 28.3851C41.8576 28.2551 41.9367 28.1308 42.0158 28.0121C42.098 27.8906 42.1867 27.7737 42.2814 27.6617C42.3696 27.5492 42.4639 27.4417 42.564 27.3396C42.7637 27.1376 42.9923 26.9662 43.2421 26.831C43.7178 26.5961 44.2432 26.4798 44.7736 26.492C45.0489 26.4801 45.322 26.4365 45.5873 26.362C45.9184 26.2584 46.227 26.0935 46.4972 25.876C46.4633 26.0625 46.4294 26.249 46.3842 26.4411C46.339 26.6332 46.2768 26.8084 46.2146 27.0062C46.1525 27.204 46.0847 27.3679 46.0056 27.5431C45.9264 27.7182 45.8304 27.8878 45.7399 28.0517C45.6495 28.2155 45.5365 28.3794 45.4291 28.5264C45.3178 28.6771 45.197 28.8205 45.0674 28.9558C44.8099 29.235 44.5129 29.4749 44.1859 29.6679Z" fill="#1C1C1B"/>
<path d="M45.3895 24.8933C45.2687 25.0125 45.1403 25.1239 45.0052 25.2267C44.8815 25.3162 44.7533 25.3992 44.6209 25.4753C44.3894 25.6024 44.1425 25.6993 43.8863 25.7635C43.4131 25.8652 42.9271 25.8938 42.4452 25.8483C42.5357 25.7127 42.6656 25.5205 42.8634 25.2832C42.9651 25.1532 43.0895 25.0119 43.2138 24.848C43.3381 24.6842 43.4907 24.5033 43.6659 24.2829C43.8411 24.0625 43.9315 23.9778 44.0502 23.8591C44.1611 23.7491 44.2781 23.6453 44.4005 23.5483C44.6022 23.3942 44.8157 23.2562 45.0391 23.1358C45.4992 22.9164 45.8716 22.548 46.0959 22.0903C45.8739 22.4518 45.5493 22.739 45.1634 22.9154C44.7286 23.1196 44.3282 23.3903 43.9767 23.7178C43.4077 24.2805 42.886 24.8891 42.417 25.5375C42.6543 24.4073 42.9821 23.164 43.8015 22.4068C44.0071 22.2236 44.2421 22.0765 44.4966 21.9716C44.7339 21.8756 44.9713 21.8077 45.22 21.7286C45.8293 21.5813 46.3734 21.2378 46.7684 20.751C46.7962 21.1272 46.7962 21.505 46.7684 21.8812C46.7244 22.2635 46.6488 22.6416 46.5423 23.0114C46.4288 23.3676 46.2772 23.7106 46.0902 24.0343C45.9984 24.1946 45.8945 24.3476 45.7794 24.492C45.6605 24.6361 45.5301 24.7703 45.3895 24.8933Z" fill="#1C1C1B"/>
<path d="M45.4975 19.9877C45.3206 20.2583 45.1098 20.5052 44.8703 20.7224C44.6759 20.9013 44.4571 21.0516 44.2204 21.1688C43.78 21.3722 43.3112 21.5075 42.8302 21.57C42.9489 21.2649 43.1975 20.7167 43.6779 19.7786C43.9365 19.2351 44.3039 18.7505 44.7572 18.3546C44.9292 18.2022 45.0863 18.0338 45.2263 17.8516C45.3856 17.6239 45.497 17.3663 45.554 17.0944C45.4244 17.5003 45.1716 17.8559 44.8307 18.1116C44.4514 18.4042 44.1229 18.7574 43.8587 19.157C43.7313 19.3386 43.6143 19.5273 43.5083 19.7221C43.3953 19.9143 43.3049 20.1064 43.2032 20.2872C43.1015 20.4681 43.0223 20.6546 42.9432 20.8524C42.9093 20.9371 42.8697 21.0162 42.8358 21.0897L42.7398 21.3044C42.7133 20.7138 42.7379 20.122 42.8132 19.5356C42.8533 19.25 42.9176 18.9683 43.0054 18.6936C43.0562 18.5636 43.1128 18.428 43.1749 18.3037C43.2377 18.1781 43.3094 18.0572 43.3897 17.942C43.7178 17.5215 44.1423 17.1862 44.6273 16.9644C45.1839 16.6774 45.6321 16.2173 45.9044 15.6533C46.0127 16.0233 46.0921 16.4012 46.1418 16.7835C46.1418 16.9757 46.17 17.1678 46.1813 17.3487C46.1948 17.5368 46.1948 17.7256 46.1813 17.9138C46.1813 18.1003 46.1418 18.2924 46.1079 18.4789C46.0786 18.6707 46.0332 18.8598 45.9722 19.044C45.8563 19.3781 45.6967 19.6955 45.4975 19.9877Z" fill="#1C1C1B"/>
<path d="M44.4918 15.1435C44.3815 15.4461 44.2354 15.7345 44.0567 16.0025C43.8927 16.2137 43.7029 16.4036 43.4916 16.5676C43.1096 16.8638 42.6846 17.1001 42.2314 17.2683C42.2611 17.0306 42.3045 16.7947 42.3614 16.5619C42.3878 16.4037 42.4273 16.2153 42.48 15.9968C42.5253 15.7934 42.5874 15.5617 42.6439 15.313C42.7206 14.9731 42.8362 14.6431 42.9887 14.3297C43.0975 14.1005 43.226 13.8811 43.3729 13.6742C43.504 13.4962 43.6194 13.3071 43.7176 13.1091C43.8187 12.85 43.8667 12.5733 43.8589 12.2953C43.8248 12.7119 43.6608 13.1073 43.3899 13.4256C43.0888 13.8021 42.8485 14.2235 42.6779 14.6745C42.4139 15.4291 42.2117 16.204 42.0732 16.9914C42.0336 16.8501 42.0054 16.7089 41.9715 16.5619C41.9376 16.415 41.898 16.2737 41.8697 16.1268C41.8189 15.8329 41.768 15.5617 41.7397 15.2509C41.7397 15.1096 41.7397 14.9627 41.7397 14.8157C41.7397 14.6688 41.7397 14.5332 41.7397 14.3919C41.7734 14.1096 41.8417 13.8325 41.9432 13.5668C42.1684 13.0838 42.5054 12.6615 42.9265 12.3349C43.4047 11.9302 43.738 11.3806 43.8759 10.7695C44.0598 11.1046 44.2203 11.4521 44.3562 11.8093C44.4184 11.9902 44.4749 12.1767 44.5257 12.3745L44.5936 12.657C44.5936 12.7474 44.6275 12.8435 44.6444 12.9396C44.784 13.6751 44.7315 14.4342 44.4918 15.1435Z" fill="#1C1C1B"/>
<path d="M42.4231 10.7094C42.3815 11.028 42.3037 11.3408 42.1914 11.6418C42.0915 11.8874 41.9605 12.1191 41.8015 12.3312C41.4989 12.7095 41.1384 13.0375 40.7334 13.3032C40.7093 13.0648 40.698 12.8252 40.6995 12.5855C40.6995 12.4273 40.6995 12.2408 40.6995 12.0204C40.6995 11.8 40.6995 11.574 40.6995 11.314C40.694 10.9663 40.7301 10.6191 40.8069 10.2799C40.8637 10.0327 40.9412 9.79073 41.0386 9.55654C41.1256 9.34496 41.1919 9.12542 41.2364 8.90101C41.2806 8.62811 41.2671 8.34897 41.1968 8.0816C41.2588 8.50098 41.1897 8.92927 40.999 9.30789C40.7878 9.74019 40.6485 10.204 40.5865 10.6811C40.4997 11.4748 40.477 12.2742 40.5187 13.0715L40.3209 12.6816C40.253 12.5516 40.1909 12.416 40.1287 12.2804C40.0101 12.0035 39.8914 11.7153 39.801 11.4553C39.7129 11.1807 39.6486 10.899 39.6088 10.6133C39.5711 10.3339 39.5711 10.0507 39.6088 9.77128C39.7198 9.24988 39.9521 8.76199 40.287 8.3472C40.6575 7.84499 40.8557 7.23642 40.8521 6.6123C41.1086 6.89322 41.3429 7.19363 41.5528 7.51083C41.6546 7.67472 41.7506 7.8386 41.841 8.00813C41.9328 8.17537 42.0121 8.34915 42.0784 8.52804C42.3792 9.21333 42.4979 9.96471 42.4231 10.7094Z" fill="#1C1C1B"/>
<path d="M39.4001 6.83102C39.4712 7.40717 39.3894 7.99188 39.1628 8.52635C38.9513 8.96423 38.673 9.36651 38.3377 9.71874C38.2869 9.56616 38.219 9.34011 38.1456 9.02365C38.106 8.87107 38.0608 8.69024 38.0156 8.45854C37.9704 8.22684 37.9195 8.01775 37.8574 7.7691C37.7816 7.42938 37.74 7.08294 37.733 6.73495C37.7374 6.48145 37.7581 6.2285 37.7952 5.9777C37.8376 5.75428 37.8547 5.5268 37.8461 5.29956C37.8251 5.02146 37.7482 4.75046 37.62 4.50275C37.7758 4.89852 37.8054 5.33276 37.7048 5.746C37.5939 6.21398 37.5614 6.69713 37.6087 7.17574C37.7034 7.96901 37.8621 8.75331 38.0834 9.52095C37.8969 9.30056 37.6991 9.07451 37.5183 8.83717C37.3385 8.60275 37.1707 8.35944 37.0153 8.10817C36.8677 7.86114 36.7411 7.60216 36.6367 7.33397C36.5905 7.19895 36.5527 7.06117 36.5237 6.92144C36.4897 6.78413 36.467 6.64427 36.4559 6.50325C36.4485 5.97093 36.5666 5.44435 36.8006 4.96615C37.0526 4.39394 37.1121 3.7554 36.9701 3.14648C37.2824 3.36452 37.5789 3.60435 37.8574 3.86418C38.1314 4.13192 38.3793 4.42523 38.5977 4.7401C39.0428 5.35524 39.3194 6.07603 39.4001 6.83102Z" fill="#1C1C1B"/>
<path d="M35.5909 3.72849C35.7948 4.28309 35.8456 4.88239 35.7378 5.46339C35.6301 5.93431 35.451 6.38597 35.2066 6.80271C35.1218 6.66708 35.0088 6.46364 34.8619 6.17543C34.7884 6.0285 34.7037 5.86462 34.6133 5.67813C34.568 5.58206 34.5172 5.48034 34.472 5.37297C34.4268 5.2656 34.3646 5.15823 34.3081 5.03955C34.037 4.50091 33.8793 3.91236 33.8447 3.31031C33.8316 3.08312 33.7956 2.85782 33.7373 2.63783C33.6555 2.37255 33.5209 2.12652 33.3417 1.91448C33.5786 2.26455 33.7028 2.6786 33.6978 3.10122C33.6964 3.58172 33.7746 4.05912 33.9295 4.514C33.9939 4.72503 34.0693 4.93252 34.1555 5.13562L34.4268 5.72899C34.6019 6.11327 34.7884 6.44103 34.9184 6.70099C34.4356 6.34793 33.9804 5.95877 33.5565 5.53685C33.3489 5.32954 33.1598 5.10453 32.9914 4.86437C32.9129 4.74517 32.843 4.62053 32.7823 4.4914C32.7198 4.36627 32.6687 4.23576 32.6297 4.10147C32.5058 3.58321 32.5058 3.04306 32.6297 2.5248C32.7593 1.92147 32.6879 1.2923 32.4263 0.733398C32.7809 0.875844 33.1246 1.04394 33.4548 1.23635C33.7845 1.43467 34.0948 1.6636 34.3816 1.92013C34.6581 2.17314 34.9063 2.45548 35.1219 2.76215C35.3186 3.06307 35.4762 3.38779 35.5909 3.72849Z" fill="#1C1C1B"/>
<path d="M25.0799 37.9478C24.9839 38.0721 24.8935 38.1908 24.8143 38.3094C24.7352 38.4281 24.6561 38.5411 24.5939 38.6542C24.463 38.8711 24.3533 39.1 24.2662 39.3379C24.1083 39.7937 24.0022 40.2657 23.9497 40.7451C24.0966 40.6773 24.3057 40.5755 24.577 40.4173C24.9181 40.2116 25.2396 39.9752 25.5377 39.7109L25.7411 39.5244C25.8033 39.4623 25.8598 39.3945 25.9106 39.3323C26.0005 39.2199 26.0817 39.1009 26.1537 38.9763C26.271 38.7705 26.3657 38.5526 26.4362 38.3264C26.5358 37.9034 26.7442 37.5137 27.0409 37.1962C26.8157 37.4921 26.6628 37.8366 26.5944 38.2021C26.4957 38.6448 26.303 39.061 26.0293 39.4227C25.5398 40.0175 24.9291 40.501 24.2379 40.8411C25.3681 40.8411 26.6736 40.4569 27.2048 39.4849C27.4304 39.0199 27.5243 38.5019 27.476 37.9873C27.4515 37.4097 27.5438 36.8331 27.7472 36.292C26.7001 36.5352 25.7625 37.1173 25.0799 37.9478Z" fill="#1C1C1B"/>
<path d="M28.6397 37.2919C28.3924 37.7708 28.2299 38.289 28.1594 38.8234C28.1057 39.3003 28.1057 39.7818 28.1594 40.2587C28.6696 39.8796 29.1144 39.4196 29.4761 38.8968C29.6667 38.6388 29.8119 38.3502 29.9056 38.0435C29.9736 37.8154 30.0154 37.5803 30.0299 37.3428C30.0441 37.136 30.0705 36.9304 30.109 36.7268C30.1574 36.502 30.2413 36.2865 30.3577 36.0882C30.214 36.4351 30.1484 36.8094 30.1655 37.1845C30.1671 37.6369 30.0767 38.0848 29.8999 38.5012C29.8133 38.6963 29.7132 38.8852 29.6004 39.0663C29.4904 39.2409 29.3676 39.4071 29.2331 39.5636C29.1031 39.7162 28.9675 39.8575 28.8375 39.9875C28.7076 40.1175 28.5832 40.2248 28.4758 40.3152C29.0466 40.1764 29.5881 39.9372 30.0751 39.6089C30.3068 39.4535 30.5127 39.2628 30.6854 39.0437C30.8588 38.8355 30.986 38.5928 31.0584 38.3317C31.1666 37.8269 31.1393 37.3024 30.9793 36.8115C30.8307 36.2594 30.7904 35.6837 30.8606 35.1162C29.8981 35.573 29.1162 36.339 28.6397 37.2919Z" fill="#1C1C1B"/>
<path d="M31.9633 35.8333C31.9008 36.1126 31.8574 36.3958 31.8333 36.681C31.8134 36.9312 31.8134 37.1825 31.8333 37.4326C31.8947 37.9102 32.0064 38.38 32.1667 38.8341C32.3186 38.6539 32.4601 38.4652 32.5905 38.269C32.8083 37.9333 32.9974 37.5798 33.1556 37.2122C33.3804 36.695 33.4473 36.1229 33.3478 35.5677C33.3137 35.3621 33.2929 35.1545 33.2856 34.9461C33.2807 34.7178 33.3151 34.4903 33.3874 34.2736C33.3665 34.3761 33.3533 34.48 33.3478 34.5844C33.3421 34.6767 33.3421 34.7691 33.3478 34.8614C33.3627 35.0325 33.3891 35.2024 33.4269 35.37C33.5333 35.8108 33.5448 36.2693 33.4608 36.7149C33.4246 36.9192 33.3698 37.1197 33.2969 37.3139C33.2259 37.5073 33.1428 37.696 33.0483 37.8791C32.9636 38.0519 32.8692 38.2198 32.7657 38.382C32.664 38.5346 32.5679 38.6702 32.4832 38.7832C32.6075 38.7154 32.7375 38.6476 32.8675 38.5685C32.9974 38.4894 33.1104 38.4046 33.2348 38.3198L33.5795 38.0429C33.6868 37.9469 33.7887 37.8451 33.8847 37.7378C34.267 37.3377 34.5022 36.8197 34.5515 36.2685C34.5433 35.7505 34.3991 35.2438 34.1333 34.7992C34.0118 34.5623 33.9079 34.3167 33.8225 34.0645C33.722 33.774 33.6575 33.4722 33.6303 33.166C32.7953 33.8466 32.2091 34.7845 31.9633 35.8333Z" fill="#1C1C1B"/>
<path d="M34.8784 33.6579C34.8784 33.8161 34.8784 33.9687 34.8784 34.11C34.8784 34.2513 34.8784 34.3812 34.9179 34.5169C34.9589 34.7661 35.0193 35.0118 35.0988 35.2515C35.2704 35.7002 35.4842 36.1317 35.7374 36.54C35.8513 36.3325 35.9459 36.1149 36.0199 35.8901C36.0838 35.7256 36.1385 35.5577 36.1838 35.3871C36.229 35.1893 36.2799 34.9746 36.3194 34.7373C36.3405 34.6463 36.3538 34.5536 36.359 34.4604C36.3645 34.3776 36.3645 34.2945 36.359 34.2117C36.3781 34.0732 36.3857 33.9333 36.3816 33.7935C36.339 33.5601 36.2746 33.3312 36.1894 33.1097C35.9924 32.7163 35.9046 32.2772 35.9352 31.8382C35.9483 32.2091 36.0449 32.5722 36.2177 32.9006C36.4254 33.3035 36.5411 33.7474 36.5568 34.2004C36.5666 34.6137 36.5191 35.0264 36.4155 35.4267C36.3712 35.6185 36.3146 35.8073 36.246 35.9918C36.1838 36.1613 36.1217 36.3139 36.0651 36.4439C36.9467 35.6923 37.7153 34.6073 37.5118 33.5223C37.4651 33.2626 37.3671 33.0147 37.2236 32.7933C37.0882 32.5822 36.939 32.3802 36.7772 32.1886C36.6061 31.983 36.4493 31.7659 36.3081 31.5387C36.1469 31.2784 36.0179 30.9994 35.9239 30.708C35.2619 31.5504 34.8946 32.5867 34.8784 33.6579Z" fill="#1C1C1B"/>
<path d="M37.2356 30.888C37.3477 31.4161 37.5504 31.9209 37.8347 32.3799C38.091 32.7905 38.3944 33.1698 38.7388 33.5101C38.8054 33.2831 38.8508 33.0504 38.8744 32.815C38.9203 32.4192 38.9298 32.0201 38.9027 31.6226C38.8942 31.4478 38.8715 31.2739 38.8349 31.1027C38.8016 30.9597 38.7562 30.8198 38.6993 30.6845C38.6074 30.4665 38.4938 30.2582 38.3602 30.0629C38.0737 29.7242 37.8791 29.3174 37.7951 28.8818C37.8941 29.2416 38.0738 29.574 38.3206 29.8538C38.6068 30.2049 38.8184 30.6106 38.9423 31.0462C39.0388 31.4457 39.0844 31.8559 39.0779 32.2669C39.0647 32.6234 39.025 32.9785 38.9592 33.3293C39.1319 33.0913 39.2886 32.8421 39.4283 32.5833C39.5702 32.3204 39.6856 32.044 39.773 31.7583C39.8489 31.4879 39.887 31.2083 39.886 30.9275C39.8852 30.6573 39.8294 30.3901 39.7221 30.142C39.4887 29.6821 39.1378 29.2922 38.7049 29.0118C38.2509 28.6749 37.867 28.2525 37.5747 27.7686C37.1165 28.7413 36.9972 29.8395 37.2356 30.888Z" fill="#1C1C1B"/>
<path d="M38.9024 27.6627C39.0286 27.9201 39.174 28.1676 39.3375 28.403C39.4834 28.6031 39.644 28.792 39.8179 28.9682C40.1611 29.3026 40.5402 29.5982 40.9481 29.8497C40.963 29.6145 40.963 29.3786 40.9481 29.1433C40.8951 28.7481 40.8139 28.3572 40.7051 27.9736C40.6139 27.6665 40.4767 27.375 40.2982 27.1089C40.1552 26.9171 39.9944 26.7392 39.8179 26.5777C39.6608 26.4394 39.5117 26.2923 39.3714 26.1369C39.3113 26.0558 39.2566 25.9709 39.2075 25.8826C39.1429 25.7787 39.088 25.669 39.0437 25.5549C39.222 25.884 39.4709 26.1696 39.7726 26.3912C39.9231 26.5129 40.0665 26.6431 40.2021 26.7812C40.3789 26.9689 40.5291 27.18 40.6486 27.4084C40.8374 27.7639 40.9744 28.1445 41.0555 28.5387C41.095 28.7365 41.1289 28.9286 41.1515 29.1038C41.1741 29.279 41.1798 29.4485 41.1854 29.5954C41.305 29.3253 41.4014 29.0455 41.4736 28.7591C41.5143 28.618 41.5464 28.4745 41.5697 28.3296C41.5913 28.1854 41.6045 28.0401 41.6093 27.8944C41.6177 27.7552 41.6177 27.6155 41.6093 27.4763C41.5963 27.3369 41.5717 27.199 41.5358 27.0637C41.4728 26.8014 41.3596 26.5539 41.2024 26.3347C40.8694 25.9391 40.4389 25.6372 39.9535 25.4588C39.7107 25.3509 39.4748 25.2282 39.2471 25.0915C38.9882 24.932 38.7492 24.7423 38.535 24.5264C38.3019 25.5834 38.4313 26.6882 38.9024 27.6627Z" fill="#1C1C1B"/>
<path d="M39.7726 24.1409C39.8743 24.2595 39.976 24.3726 40.0777 24.4743C40.1794 24.576 40.2699 24.6721 40.3659 24.7625C40.5528 24.9319 40.7553 25.0833 40.9706 25.2146C41.3831 25.464 41.8231 25.665 42.2817 25.8136C42.2336 25.5833 42.1694 25.3567 42.0895 25.1355C42.0349 24.9673 41.9688 24.803 41.8917 24.6438C41.807 24.4573 41.7109 24.2595 41.5922 24.0787C41.5069 23.9238 41.4086 23.7763 41.2984 23.6379C41.2069 23.5247 41.1047 23.4207 40.9932 23.3271C40.8207 23.1707 40.6311 23.0342 40.4281 22.9202C40.0289 22.7338 39.6844 22.4477 39.4279 22.0895C39.679 22.3643 39.9904 22.5771 40.3377 22.7111C40.7504 22.8938 41.1186 23.1637 41.417 23.5023C41.9041 24.0995 42.2551 24.7957 42.4455 25.5424C42.4455 25.4011 42.4908 25.2541 42.5077 25.1072C42.5275 24.9611 42.5388 24.8139 42.5416 24.6664C42.5471 24.3751 42.5263 24.0838 42.4795 23.7962C42.4271 23.5206 42.3397 23.2528 42.2195 22.9993C42.0948 22.7591 41.9261 22.5444 41.7222 22.3664C41.5237 22.1936 41.2933 22.0611 41.0441 21.9765C40.8026 21.9017 40.5574 21.8395 40.3094 21.79C39.7425 21.6961 39.2004 21.4885 38.7158 21.1797C38.7336 22.256 39.105 23.2965 39.7726 24.1409Z" fill="#1C1C1B"/>
<path d="M39.874 20.5022C40.2948 20.8394 40.7683 21.1048 41.2755 21.2877C41.7312 21.4329 42.201 21.5295 42.677 21.5759C42.5883 21.3585 42.4785 21.1503 42.3492 20.9543C42.2645 20.8187 42.1628 20.6774 42.0441 20.5135L41.8519 20.2705L41.6203 20.0049C41.2478 19.583 40.7578 19.2819 40.2131 19.1403C40.0208 19.0841 39.832 19.0162 39.648 18.9369C39.439 18.8445 39.2478 18.7164 39.0829 18.5582C39.3885 18.7743 39.7376 18.9209 40.1058 18.9877C40.5496 19.0749 40.9697 19.256 41.3377 19.5189C41.5025 19.6402 41.6575 19.7743 41.8011 19.9201C41.9491 20.0649 42.087 20.2197 42.2136 20.3835C42.3323 20.5418 42.4453 20.7057 42.547 20.8582C42.6487 21.0108 42.6431 21.0052 42.6827 21.0786L42.7957 21.2764C42.7712 20.695 42.6489 20.1219 42.434 19.5811C42.3237 19.3242 42.1771 19.0844 41.9989 18.869C41.912 18.7661 41.8175 18.6698 41.7163 18.5808C41.6104 18.497 41.4969 18.4232 41.3773 18.3604C40.9071 18.1459 40.3878 18.0619 39.874 18.1174C39.299 18.1568 38.7221 18.0779 38.1787 17.8857C38.4388 18.9214 39.035 19.8416 39.874 20.5022Z" fill="#1C1C1B"/>
<path d="M39.1279 16.9463C39.389 17.0672 39.6592 17.1673 39.936 17.2458C40.1765 17.3136 40.4223 17.3608 40.6707 17.3871C41.1508 17.4293 41.6341 17.418 42.1117 17.3532C41.9707 17.1648 41.8158 16.9872 41.6483 16.822C41.5353 16.7146 41.3997 16.5959 41.2471 16.4659C41.0798 16.3222 40.9043 16.1883 40.7215 16.0647C40.4589 15.879 40.1665 15.7395 39.8569 15.6522C39.6259 15.5916 39.3891 15.5556 39.1505 15.5448C38.9441 15.534 38.7384 15.5114 38.5346 15.477C38.3077 15.4356 38.0898 15.3553 37.8903 15.2397C38.2358 15.3809 38.6082 15.4446 38.981 15.4261C39.4337 15.4097 39.8846 15.4906 40.3034 15.6635C41.0014 15.9878 41.6204 16.4603 42.1174 17.048C42.0778 16.9067 42.0382 16.7655 41.9874 16.6298C41.9365 16.4942 41.88 16.3529 41.8179 16.2173C41.699 15.9496 41.5512 15.6956 41.3771 15.46C41.296 15.3452 41.2052 15.2374 41.1058 15.1379C41.0105 15.0385 40.9065 14.9477 40.795 14.8667C40.5824 14.7006 40.3382 14.5794 40.0773 14.5107C39.5702 14.4083 39.0448 14.4454 38.5572 14.618C38.008 14.7821 37.4314 14.834 36.8618 14.7706C37.3541 15.7277 38.1515 16.4934 39.1279 16.9463Z" fill="#1C1C1B"/>
<path d="M37.6021 13.6535C37.8831 13.7125 38.1685 13.7485 38.4554 13.7609C38.7056 13.781 38.9569 13.781 39.207 13.7609C39.682 13.6904 40.1481 13.5691 40.5972 13.3992C40.4202 13.2468 40.2312 13.1088 40.0321 12.9867C39.8965 12.9019 39.7382 12.8171 39.5631 12.7267C39.3879 12.6363 39.1901 12.5459 38.9584 12.4611C38.6615 12.3389 38.3464 12.2663 38.0259 12.2464C37.7873 12.243 37.549 12.2619 37.3139 12.3029C37.1085 12.341 36.9009 12.3655 36.6923 12.3763C36.4629 12.3905 36.2329 12.3618 36.0141 12.2916C36.3815 12.3533 36.758 12.3321 37.1161 12.2294C37.5544 12.1109 38.0131 12.0878 38.4611 12.1616C39.2147 12.3181 39.9246 12.6383 40.5407 13.0997C40.4672 12.9697 40.3994 12.8397 40.3203 12.7211C40.2412 12.6024 40.1508 12.4781 40.0604 12.3594C39.8845 12.1254 39.6836 11.9113 39.4613 11.7208C39.2521 11.5353 39.0158 11.3829 38.7606 11.2687C38.6371 11.2179 38.5107 11.1745 38.382 11.1388C38.2485 11.1076 38.1121 11.0905 37.9751 11.0879C37.4597 11.1036 36.958 11.2578 36.5227 11.5343C36.0229 11.8176 35.4715 11.9981 34.9009 12.0655C35.5996 12.8806 36.5501 13.4394 37.6021 13.6535Z" fill="#1C1C1B"/>
<path d="M35.3652 10.7816C35.6516 10.7784 35.9371 10.75 36.2185 10.6969C36.4666 10.6537 36.7104 10.5894 36.9475 10.5047C37.397 10.3312 37.8254 10.1076 38.2247 9.83789C38.0143 9.73314 37.7972 9.64252 37.5748 9.56664C37.4222 9.51578 37.2527 9.47057 37.0605 9.41971C36.8466 9.36539 36.6296 9.32387 36.4106 9.29538C36.0928 9.24054 35.7678 9.24054 35.45 9.29538C35.2175 9.34239 34.9904 9.41244 34.7718 9.50447C34.5871 9.58528 34.3985 9.65695 34.2067 9.71922C33.9863 9.78066 33.7569 9.8036 33.5286 9.78703C33.8992 9.76134 34.2598 9.65528 34.5853 9.47622C34.9868 9.26592 35.4274 9.14087 35.8794 9.10889C36.6567 9.08867 37.4287 9.24115 38.1399 9.55533C37.9338 9.32568 37.7067 9.11568 37.4618 8.92806C37.2384 8.73678 36.9938 8.57182 36.7328 8.43641C36.4867 8.3043 36.2218 8.21091 35.9473 8.15951C35.8174 8.13053 35.6848 8.11538 35.5517 8.1143C35.4151 8.11343 35.2787 8.12669 35.1448 8.15386C34.644 8.28828 34.189 8.55582 33.8281 8.92806C33.4051 9.31536 32.9096 9.61499 32.3701 9.80963C33.2315 10.4598 34.2862 10.802 35.3652 10.7816Z" fill="#1C1C1B"/>
<path d="M32.5448 8.48816C33.0682 8.36336 33.5668 8.1513 34.0198 7.86089C34.4183 7.59118 34.7859 7.27849 35.1161 6.92845C34.8879 6.87035 34.6555 6.83066 34.421 6.80978C34.2628 6.80978 34.0876 6.80978 33.8898 6.80978H33.5564H33.206C32.6471 6.84118 32.1102 7.03786 31.6632 7.37489C31.4942 7.4971 31.3187 7.61028 31.1377 7.71396C30.9377 7.82519 30.7196 7.89983 30.4935 7.93435C30.8506 7.81733 31.1783 7.62457 31.4542 7.36924C31.7957 7.07201 32.1962 6.85051 32.6296 6.71936C32.8272 6.66195 33.0296 6.62223 33.2342 6.60069C33.4381 6.57081 33.6442 6.55758 33.8502 6.56113C34.2064 6.55772 34.5621 6.58799 34.9126 6.65155C34.436 6.30529 33.9023 6.04518 33.336 5.88299C33.0674 5.80933 32.7892 5.77693 32.5109 5.78692C32.376 5.79238 32.2417 5.80939 32.1097 5.83778C31.9774 5.86747 31.8486 5.91104 31.7254 5.96776C31.2624 6.20691 30.872 6.56602 30.5952 7.00757C30.2717 7.48228 29.8567 7.88766 29.3745 8.19995C30.3693 8.64792 31.4856 8.7494 32.5448 8.48816Z" fill="#1C1C1B"/>
</g>
<defs>
<clipPath id="clip0_773_24865">
<rect width="46.78" height="43.5928" fill="white" transform="translate(0 0.734375)"/>
</clipPath>
</defs>
</svg>
